<svg width="45" height="44" viewBox="0 0 45 44" fill="none" xmlns="http://www.w3.org/2000/svg">
<path d="M39.7266 23.7642V37.4687C39.7266 39.3671 38.1525 40.9062 36.2109 40.9062H8.78906C6.84747 40.9062 5.27344 39.3671 5.27344 37.4687V23.7642" stroke="#262626" stroke-width="3.4375" stroke-miterlimit="10" stroke-linecap="round" stroke-linejoin="round"/>
<path d="M29.5312 25.4375L40.2939 23.6742C41.9658 23.4089 43.2421 21.9909 43.2421 20.2812V13.4062C43.2421 11.5078 41.6682 9.96875 39.7266 9.96875H5.27344C3.33184 9.96875 1.75781 11.5078 1.75781 13.4062V20.2812C1.75781 21.9909 3.03425 23.4089 4.70602 23.6742L15.4687 25.4375" stroke="#262626" stroke-width="3.4375" stroke-miterlimit="10" stroke-linecap="round" stroke-linejoin="round"/>
<path d="M22.5 23.7188V30.5938" stroke="#6B9E23" stroke-width="3.4375" stroke-miterlimit="10" stroke-linecap="round" stroke-linejoin="round"/>
<path d="M15.4688 9.96875V6.53125C15.4688 4.6328 17.0428 3.09375 18.9844 3.09375H26.0156C27.9572 3.09375 29.5312 4.6328 29.5312 6.53125V9.96875" stroke="#262626" stroke-width="3.4375" stroke-miterlimit="10" stroke-linecap="round" stroke-linejoin="round"/>
</svg>
