<svg width="44" height="44" viewBox="0 0 44 44" fill="none" xmlns="http://www.w3.org/2000/svg">
<path d="M28.5298 1.83528C26.357 2.19733 24.1946 2.51558 22.0425 2.52228C19.8513 2.52915 17.6708 2.21803 15.5007 1.86525C10.267 1.0144 5.51172 5.03456 5.51172 10.3369V19.036C5.51172 25.6409 8.13546 31.9754 12.8058 36.6457L15.9274 39.7672C19.2811 43.1208 24.7184 43.1208 28.072 39.7672L31.1935 36.6457C35.8639 31.9753 38.4877 25.6409 38.4877 19.036V10.3162C38.4878 5.02512 33.7489 0.965619 28.5298 1.83528Z" stroke="#262626" stroke-width="3.43501" stroke-miterlimit="10" stroke-linecap="round" stroke-linejoin="round"/>
<path d="M21.6824 29.3155C25.7847 29.3155 29.2134 26.0197 29.2134 21.9543C29.2134 20.0778 28.0157 17.6462 27.1267 16.6785C26.4664 15.9597 25.2749 16.2114 24.9611 17.1323C24.9574 17.143 24.0981 18.8387 24.0981 18.8387C24.0981 18.8387 22.0182 15.4513 21.87 13.2966C21.8036 12.3321 20.6995 11.8145 19.8981 12.3656C17.5589 13.9741 14.8721 18.8859 14.8721 22.4977C14.8722 26.263 17.8828 29.3155 21.6824 29.3155Z" stroke="#6B9E23" stroke-width="3.43501" stroke-miterlimit="10" stroke-linecap="round" stroke-linejoin="round"/>
</svg>
