<svg width="44" height="44" viewBox="0 0 44 44" fill="none" xmlns="http://www.w3.org/2000/svg">
<path d="M4.29688 44C3.34761 44 2.57812 43.2305 2.57812 42.2812C2.57812 33.657 9.59449 26.6406 18.2188 26.6406H20.7969C22.6904 26.6406 24.542 26.9758 26.3001 27.6367C27.1886 27.9708 27.6381 28.9619 27.3041 29.8504C26.97 30.7389 25.9786 31.1884 25.0905 30.8544C23.7205 30.3393 22.2759 30.0781 20.7969 30.0781H18.2188C11.4899 30.0781 6.01563 35.5524 6.01563 42.2812C6.01563 43.2305 5.24614 44 4.29688 44ZM30.9375 11.6016C30.9375 5.20446 25.733 0 19.3359 0C12.9388 0 7.73438 5.20446 7.73438 11.6016C7.73438 17.9987 12.9388 23.2031 19.3359 23.2031C25.733 23.2031 30.9375 17.9987 30.9375 11.6016ZM27.5 11.6016C27.5 16.1032 23.8376 19.7656 19.3359 19.7656C14.8343 19.7656 11.1719 16.1032 11.1719 11.6016C11.1719 7.0999 14.8343 3.4375 19.3359 3.4375C23.8376 3.4375 27.5 7.0999 27.5 11.6016Z" fill="#262626"/>
<path d="M41.4224 36.638C41.4224 33.9528 39.0343 31.7682 36.0991 31.7682C34.8513 31.7683 33.9458 31.1658 33.9458 30.3359C33.9458 29.5462 34.5819 28.9036 35.3638 28.9036C36.1521 28.9036 37.1789 28.9896 38.818 29.627C39.7026 29.971 40.6988 29.5329 41.0429 28.6481C41.387 27.7635 40.9487 26.7673 40.064 26.4233C39.2107 26.0915 38.4667 25.8739 37.813 25.7306V24.4062C37.813 23.457 37.0435 22.6875 36.0943 22.6875C35.145 22.6875 34.3755 23.457 34.3755 24.4062V25.5678C32.1705 26.0269 30.5083 27.9903 30.5083 30.3359C30.5083 33.1121 32.9118 35.2058 36.0991 35.2058C37.1214 35.2058 37.9849 35.8616 37.9849 36.6381C37.9849 37.401 37.2754 38.0704 36.4666 38.0704C35.8356 38.0704 34.2523 37.839 32.6901 37.218C31.8081 36.8675 30.8087 37.2982 30.458 38.1802C30.1073 39.0624 30.5382 40.0617 31.4203 40.4124C32.4156 40.808 33.454 41.0903 34.3755 41.2692V42.2812C34.3755 43.2305 35.145 44 36.0943 44C37.0435 44 37.813 43.2305 37.813 42.2812V41.3214C38.5989 41.1003 39.3252 40.687 39.9304 40.1037C40.8925 39.1766 41.4224 37.9457 41.4224 36.638Z" fill="#6B9E23"/>
</svg>
