<svg width="36" height="36" viewBox="0 0 36 36" fill="none" xmlns="http://www.w3.org/2000/svg">
<path d="M3.51563 36C2.73896 36 2.10938 35.3704 2.10938 34.5937C2.10938 27.5375 7.85004 21.7969 14.9063 21.7969H17.0157C18.5649 21.7969 20.0798 22.0711 21.5183 22.6118C22.2452 22.8852 22.613 23.6961 22.3397 24.4231C22.0664 25.15 21.2552 25.5178 20.5286 25.2445C19.4077 24.8231 18.2257 24.6094 17.0157 24.6094H14.9063C9.40083 24.6094 4.92188 29.0883 4.92188 34.5937C4.92188 35.3704 4.2923 36 3.51563 36ZM25.3125 9.49222C25.3125 4.25819 21.0543 0 15.8203 0C10.5863 0 6.32813 4.25819 6.32813 9.49222C6.32813 14.7262 10.5863 18.9844 15.8203 18.9844C21.0543 18.9844 25.3125 14.7262 25.3125 9.49222ZM22.5 9.49222C22.5 13.1753 19.5035 16.1719 15.8203 16.1719C12.1372 16.1719 9.14065 13.1753 9.14065 9.49222C9.14065 5.80901 12.1372 2.8125 15.8203 2.8125C19.5035 2.8125 22.5 5.80901 22.5 9.49222Z" fill="#262626"/>
<path d="M33.891 29.9765C33.891 27.7796 31.9371 25.9922 29.5356 25.9922C28.5147 25.9922 27.7738 25.4993 27.7738 24.8203C27.7738 24.1742 28.2943 23.6484 28.934 23.6484C29.579 23.6484 30.4191 23.7188 31.7602 24.2403C32.4839 24.5217 33.299 24.1633 33.5805 23.4394C33.8621 22.7156 33.5035 21.9005 32.7796 21.6191C32.0815 21.3476 31.4727 21.1696 30.9379 21.0523V19.9687C30.9379 19.1921 30.3083 18.5625 29.5317 18.5625C28.755 18.5625 28.1254 19.1921 28.1254 19.9687V20.9191C26.3213 21.2947 24.9613 22.9012 24.9613 24.8203C24.9613 27.0917 26.9278 28.8047 29.5356 28.8047C30.372 28.8047 31.0785 29.3413 31.0785 29.9766C31.0785 30.6008 30.498 31.1485 29.8363 31.1485C29.32 31.1485 28.0246 30.9592 26.7464 30.4511C26.0248 30.1643 25.2071 30.5167 24.9202 31.2383C24.6332 31.9601 24.9858 32.7778 25.7075 33.0647C26.5218 33.3884 27.3714 33.6193 28.1254 33.7657V34.5937C28.1254 35.3704 28.755 36 29.5317 36C30.3083 36 30.9379 35.3704 30.9379 34.5937V33.8084C31.5809 33.6275 32.1751 33.2894 32.6703 32.8121C33.4575 32.0536 33.891 31.0465 33.891 29.9765Z" fill="#6B9E23"/>
</svg>
