<svg width="36" height="35" viewBox="0 0 36 35" fill="none" xmlns="http://www.w3.org/2000/svg">
<g clip-path="url(#clip0_4812_1283)">
<mask id="mask0_4812_1283" style="mask-type:luminance" maskUnits="userSpaceOnUse" x="0" y="0" width="36" height="35">
<path d="M36 0H0V35H36V0Z" fill="white"/>
</mask>
<g mask="url(#mask0_4812_1283)">
<path d="M11.3807 29.6378L10.9687 30.0383V22.4015C10.9687 21.6464 10.3392 21.0343 9.5625 21.0343C8.7858 21.0343 8.15624 21.6464 8.15624 22.4015V30.0383L7.74435 29.6378C7.19514 29.1039 6.30477 29.1039 5.75563 29.6378C5.20649 30.1718 5.20642 31.0374 5.75563 31.5713L8.56792 34.3056C8.83792 34.568 9.2052 34.7061 9.5625 34.7061C9.91718 34.7061 10.2865 34.5685 10.5571 34.3056L13.3693 31.5713C13.9186 31.0374 13.9186 30.1717 13.3693 29.6378C12.8202 29.104 11.9297 29.1039 11.3807 29.6378Z" fill="#6B9E23"/>
<path d="M30.2443 29.6378C29.6952 29.1038 28.8047 29.1038 28.2557 29.6378L27.8437 30.0383V22.4015C27.8437 21.6464 27.2142 21.0343 26.4375 21.0343C25.6608 21.0343 25.0312 21.6464 25.0312 22.4015V30.0383L24.6193 29.6378C24.0702 29.1039 23.1797 29.1039 22.6307 29.6378C22.0815 30.1718 22.0814 31.0374 22.6307 31.5713L25.4429 34.3056C25.7141 34.5692 26.0837 34.7061 26.4375 34.7061C26.7932 34.7061 27.1609 34.569 27.4321 34.3056L30.2443 31.5713C30.7936 31.0374 30.7936 30.1717 30.2443 29.6378Z" fill="#6B9E23"/>
<path d="M34.5938 15.5656H33.4688V9.29607L33.5994 9.42295C34.1486 9.95694 35.039 9.95694 35.5881 9.42295C36.1373 8.88904 36.1374 8.02343 35.5881 7.4895L29.4206 1.49329C27.7757 -0.105908 25.0993 -0.105908 23.4543 1.49329L18 6.79614L12.5456 1.49322C10.9007 -0.105976 8.22428 -0.105976 6.57937 1.49322L0.411908 7.48943C-0.137303 8.02343 -0.137303 8.88904 0.411908 9.42295C0.961118 9.95678 1.85149 9.95686 2.40063 9.42295L2.53127 9.296V15.5656H1.40627C0.629596 15.5656 1.73902e-05 16.1777 1.73902e-05 16.9328C1.73902e-05 17.6879 0.629596 18.3 1.40627 18.3H34.5938C35.3704 18.3 36 17.6879 36 16.9328C36 16.1777 35.3704 15.5656 34.5938 15.5656ZM25.4432 3.42677C25.9914 2.8937 26.8836 2.8937 27.4318 3.42677L30.2443 6.16114C30.5099 6.4194 30.6563 6.7627 30.6563 7.12788V15.5655H27.8438V14.1984C27.8438 13.4433 27.2142 12.8312 26.4375 12.8312C25.6609 12.8312 25.0313 13.4433 25.0313 14.1984V15.5655H22.2188V7.12788C22.2188 6.7627 22.3651 6.41934 22.6307 6.16114L25.4432 3.42677ZM17.0057 9.69643C17.2802 9.96338 17.6401 10.0969 18 10.0969C18.3599 10.0969 18.7198 9.96338 18.9943 9.69643L19.4063 9.296V15.5656H16.5938V9.29607L17.0057 9.69643ZM5.34377 7.12788C5.34377 6.7627 5.49009 6.41934 5.75566 6.16114L8.56816 3.42677C9.11643 2.8937 10.0086 2.8937 10.5568 3.42677L13.3693 6.16114C13.6349 6.4194 13.7813 6.7627 13.7813 7.12788V15.5655H10.9688V14.1984C10.9688 13.4433 10.3392 12.8312 9.5625 12.8312C8.78588 12.8312 8.15627 13.4433 8.15627 14.1984V15.5655H5.34377V7.12788Z" fill="#262626"/>
<path d="M9.5625 10.0968C10.3391 10.0968 10.9687 9.48468 10.9687 8.72964C10.9687 7.97451 10.3391 7.36243 9.5625 7.36243C8.78588 7.36243 8.15625 7.97451 8.15625 8.72964C8.15625 9.48468 8.78588 10.0968 9.5625 10.0968Z" fill="#262626"/>
<path d="M26.4375 10.0968C27.2141 10.0968 27.8437 9.48468 27.8437 8.72964C27.8437 7.97451 27.2141 7.36243 26.4375 7.36243C25.6608 7.36243 25.0312 7.97451 25.0312 8.72964C25.0312 9.48468 25.6608 10.0968 26.4375 10.0968Z" fill="#262626"/>
</g>
</g>
<defs>
<clipPath id="clip0_4812_1283">
<rect width="36" height="35" fill="white"/>
</clipPath>
</defs>
</svg>
