<svg width="36" height="36" viewBox="0 0 36 36" fill="none" xmlns="http://www.w3.org/2000/svg">
<g clip-path="url(#clip0_4812_1273)">
<mask id="mask0_4812_1273" style="mask-type:luminance" maskUnits="userSpaceOnUse" x="0" y="0" width="36" height="36">
<path d="M36 0H0V36H36V0Z" fill="white"/>
</mask>
<g mask="url(#mask0_4812_1273)">
<path d="M15.1875 29.2528C15.9642 29.2528 16.5937 28.6232 16.5937 27.8466V25.0341C16.5937 24.2586 17.2246 23.6278 18 23.6278C18.7754 23.6278 19.4062 24.2586 19.4062 25.0341V27.8466C19.4062 28.6232 20.0358 29.2528 20.8125 29.2528C21.5892 29.2528 22.2187 28.6232 22.2187 27.8466V25.0341C22.2187 22.7078 20.3262 20.8153 18 20.8153C15.6737 20.8153 13.7812 22.7078 13.7812 25.0341V27.8466C13.7812 28.6232 14.4108 29.2528 15.1875 29.2528Z" fill="#6B9E23"/>
<path d="M34.4201 13.3067C34.4201 13.3067 20.6382 2.05529 20.6345 2.05234C19.0833 0.812164 16.9166 0.812164 15.3655 2.05234C15.3617 2.05529 1.57989 13.3067 1.57989 13.3067C-0.23945 14.7652 -0.527873 17.4157 0.925274 19.2306C2.38468 21.058 5.04341 21.3423 6.85586 19.8898C6.85965 19.8867 18 10.766 18 10.766C18 10.766 29.1405 19.8869 29.1444 19.89C30.9528 21.3386 33.6125 21.062 35.0736 19.2319C36.5326 17.4096 36.2336 14.7604 34.4201 13.3067ZM32.8769 17.4756C32.3935 18.081 31.5115 18.1789 30.9071 17.6985L18.8908 7.86057C18.3726 7.43645 17.6273 7.43645 17.1092 7.86057L5.09256 17.6987C4.49258 18.1754 3.60946 18.0847 3.12184 17.4741C2.63675 16.8681 2.73364 15.9847 3.34114 15.4995C3.34508 15.4964 17.1265 4.24517 17.1265 4.24517C17.6416 3.83687 18.3584 3.83687 18.8735 4.24517C18.8735 4.24517 32.655 15.4963 32.6589 15.4995C33.2643 15.9831 33.3652 16.8657 32.8769 17.4756Z" fill="#262626"/>
<path d="M7.03125 23.1439C6.25457 23.1439 5.625 23.7735 5.625 24.5501V27.8466C5.625 31.7236 8.77925 34.8779 12.6563 34.8779H23.3437C27.2207 34.8779 30.375 31.7236 30.375 27.8466V24.5496C30.375 23.773 29.7454 23.1434 28.9687 23.1434C28.1921 23.1434 27.5625 23.773 27.5625 24.5496V27.8466C27.5625 30.1728 25.67 32.0654 23.3437 32.0654H12.6563C10.33 32.0654 8.4375 30.1728 8.4375 27.8466V24.5501C8.4375 23.7735 7.80793 23.1439 7.03125 23.1439Z" fill="#262626"/>
</g>
</g>
<defs>
<clipPath id="clip0_4812_1273">
<rect width="36" height="36" fill="white"/>
</clipPath>
</defs>
</svg>
