<svg width="36" height="35" viewBox="0 0 36 35" fill="none" xmlns="http://www.w3.org/2000/svg">
<path d="M32.9029 11.1375C31.4408 9.71601 29.0616 9.71601 27.5994 11.1375L18.2245 20.252C16.6742 21.7592 15.7084 23.6832 15.4372 25.7641H14.2861C13.7702 24.3494 12.3799 23.3334 10.7502 23.3334C8.68234 23.3334 7 24.969 7 26.9794C7 27.6506 7.55965 28.1947 8.25009 28.1947C8.94047 28.1947 9.50011 27.6506 9.50011 26.9794C9.50011 26.3093 10.0609 25.7641 10.7502 25.7641C11.4394 25.7641 12.0002 26.3093 12.0002 26.9794C12.0002 27.6506 12.5599 28.1947 13.2503 28.1947H16.6083C19.2223 28.1947 21.6798 27.2051 23.5282 25.4081C24.067 24.8842 32.367 16.8148 32.903 16.2937C34.3651 14.8721 34.3651 12.5591 32.9029 11.1375ZM21.7602 23.6894C20.7152 24.7055 19.4085 25.3749 17.988 25.6381C18.2588 24.2571 18.9473 22.9867 19.9923 21.9707L25.4475 16.667L27.2154 18.3858L21.7602 23.6894ZM31.1351 14.575L28.9833 16.667L27.2155 14.9482L29.3672 12.8562C29.8548 12.3824 30.6477 12.3824 31.1351 12.8562C31.6236 13.3312 31.6237 14.0999 31.1351 14.575Z" fill="#262626"/>
<path d="M25.7512 27.1699C25.0608 27.1699 24.5011 27.7141 24.5011 28.3853V29.4102C24.5011 30.0803 23.9404 30.6255 23.251 30.6255H5.75019C5.0609 30.6255 4.50013 30.0803 4.50013 29.4102V5.58959C4.50013 4.91945 5.0609 4.37424 5.75019 4.37424H19.7154C20.0493 4.37424 20.3632 4.5007 20.5993 4.73022L24.135 8.16772C24.2856 8.31416 24.3958 8.49688 24.4539 8.69614C24.642 9.34197 25.333 9.71734 25.9973 9.53455C26.6616 9.35167 27.0477 8.67991 26.8596 8.03408C26.6854 7.43629 26.3547 6.88817 25.9029 6.44901L22.3672 3.01149C21.6588 2.32282 20.717 1.94357 19.7154 1.94357H5.75019C3.68234 1.94357 2 3.57917 2 5.58959V29.4102C2 31.4206 3.68234 33.0562 5.75019 33.0562H23.251C25.3189 33.0562 27.0013 31.4206 27.0013 29.4102V28.3853C27.0013 27.7141 26.4415 27.1699 25.7512 27.1699Z" fill="#262626"/>
<path d="M15.7504 11.6664H8.25008C7.55965 11.6664 7 11.1223 7 10.451C7 9.77981 7.55965 9.23572 8.25008 9.23572H15.7504C16.4408 9.23572 17.0005 9.77981 17.0005 10.451C17.0005 11.1223 16.4408 11.6664 15.7504 11.6664Z" fill="#6B9E23"/>
<path d="M15.7504 16.5276H8.25008C7.55965 16.5276 7 15.9835 7 15.3123C7 14.641 7.55965 14.097 8.25008 14.097H15.7504C16.4408 14.097 17.0005 14.641 17.0005 15.3123C17.0005 15.9835 16.4408 16.5276 15.7504 16.5276Z" fill="#6B9E23"/>
</svg>
