<svg width="36" height="36" viewBox="0 0 36 36" fill="none" xmlns="http://www.w3.org/2000/svg">
<path d="M24 36L12 31.8L2.7 35.4C2.03333 35.6667 1.41667 35.592 0.85 35.176C0.283333 34.76 0 34.2013 0 33.5V5.5C0 5.06667 0.125333 4.68333 0.376 4.35C0.626667 4.01667 0.968 3.76667 1.4 3.6L12 0L24 4.2L33.3 0.6C33.9667 0.333333 34.5833 0.408667 35.15 0.826C35.7167 1.24333 36 1.80133 36 2.5V30.5C36 30.9333 35.8753 31.3167 35.626 31.65C35.3767 31.9833 35.0347 32.2333 34.6 32.4L24 36ZM22 31.1V7.7L14 4.9V28.3L22 31.1ZM26 31.1L32 29.1V5.4L26 7.7V31.1ZM4 30.6L10 28.3V4.9L4 6.9V30.6Z" fill="#6B9E23"/>
</svg>
