<svg width="36" height="36" viewBox="0 0 36 36" fill="none" xmlns="http://www.w3.org/2000/svg">
<path d="M7.75888 0C9.54567 0.637827 10.7444 1.95944 11.6979 3.503C12.5683 4.91205 13.3621 6.37266 14.1167 7.84785C14.7317 9.05176 14.4877 9.8454 13.352 10.5684C12.6616 11.009 11.9239 11.3778 11.1975 11.7611C10.8186 11.9618 10.4138 12.1131 10.0281 12.3025C8.86761 12.8731 8.41332 14.2048 8.95644 15.3874C10.0483 17.7695 11.7361 19.7087 13.5387 21.5662C15.4908 23.5783 17.6981 25.2609 20.1101 26.6867C21.5742 27.5532 23.0304 27.1418 23.8231 25.6218C24.3055 24.6959 24.7711 23.761 25.2602 22.8373C25.3985 22.575 25.5773 22.3307 25.7595 22.0953C26.3925 21.2758 27.2415 21.0494 28.1366 21.5583C30.7027 23.0189 33.0348 24.7923 35.0701 26.9322C35.3973 27.2763 35.6065 27.7303 35.8707 28.1339V29.1427C35.4344 30.5821 34.5843 31.7546 33.5341 32.8072C32.0666 34.2779 30.4305 35.4582 28.3368 35.8685H27.4372C26.8761 35.7396 26.3048 35.6409 25.7538 35.475C22.295 34.437 19.2353 32.6132 16.2756 30.609C11.9408 27.6732 8.26601 24.0569 5.32776 19.7345C2.95737 16.2483 0.681432 12.6949 0 8.40721V7.95882C0.889459 4.00407 3.51961 1.5884 7.08419 0H7.75888Z" fill="#6B9E23"/>
</svg>
